<?xml version="1.0" encoding="UTF-8" standalone="no"?>
<!-- Created with Inkscape (http://www.inkscape.org/) -->

<svg
   xmlns:dc="http://purl.org/dc/elements/1.1/"
   xmlns:cc="http://creativecommons.org/ns#"
   xmlns:rdf="http://www.w3.org/1999/02/22-rdf-syntax-ns#"
   xmlns:svg="http://www.w3.org/2000/svg"
   xmlns="http://www.w3.org/2000/svg"
   xmlns:sodipodi="http://sodipodi.sourceforge.net/DTD/sodipodi-0.dtd"
   xmlns:inkscape="http://www.inkscape.org/namespaces/inkscape"
   width="353.17505"
   height="152.41339"
   id="svg3233"
   version="1.1"
   inkscape:version="0.48.3.1 r9886"
   sodipodi:docname="identyfikator_choragiew_czarna.pdf"
   inkscape:export-filename="C:\Documents and Settings\kh\Pulpit\Materiały_chorągiew\identyfikator_choragiew_czarna_96.png"
   inkscape:export-xdpi="96"
   inkscape:export-ydpi="96">
  <defs
     id="defs3235" />
  <sodipodi:namedview
     id="base"
     pagecolor="#ffffff"
     bordercolor="#666666"
     borderopacity="1.0"
     inkscape:pageopacity="0.0"
     inkscape:pageshadow="2"
     inkscape:zoom="0.7"
     inkscape:cx="84.549366"
     inkscape:cy="147.81933"
     inkscape:document-units="px"
     inkscape:current-layer="layer1"
     showgrid="false"
     fit-margin-top="0"
     fit-margin-left="0"
     fit-margin-right="0"
     fit-margin-bottom="0"
     inkscape:window-width="702"
     inkscape:window-height="443"
     inkscape:window-x="194"
     inkscape:window-y="443"
     inkscape:window-maximized="0" />
  <metadata
     id="metadata3238">
    <rdf:RDF>
      <cc:Work
         rdf:about="">
        <dc:format>image/svg+xml</dc:format>
        <dc:type
           rdf:resource="http://purl.org/dc/dcmitype/StillImage" />
        <dc:title></dc:title>
      </cc:Work>
    </rdf:RDF>
  </metadata>
  <g
     inkscape:label="Layer 1"
     inkscape:groupmode="layer"
     id="layer1"
     transform="translate(-211.98392,-530.4412)">
    <path
       style="fill:#ffffff;fill-opacity:1;fill-rule:evenodd;stroke:none"
       d="m 330.2022,551.50622 c -33.40414,3.29646 -70.18508,7.39849 -104.50023,10.40103 -4.17675,0.43901 -7.18461,4.15159 -6.7456,8.32836 l 10.17492,96.8502 c 0.43896,4.17678 4.15155,7.18459 8.32837,6.7456 l 96.8502,-10.17492 c 4.17675,-0.43899 7.18461,-4.15159 6.7456,-8.32837 L 330.2022,551.50622 z m -30.73203,21.95145 c 2.41882,-0.01 4.87983,0.11804 7.36739,0.37685 -27.79216,17.76865 -40.31217,44.05255 -17.29737,62.51926 -12.1882,-7.66028 -32.72539,-13.50358 -29.92181,-3.95692 -32.87848,-19.70041 -1.99245,-58.76854 39.85179,-58.93919 z m 9.06321,1.28129 c 6.1172,2.00232 4.96157,13.33985 8.44142,13.83036 -8.32221,-0.97047 -5.30247,-7.63954 -14.9609,-9.27049 l 6.51948,-4.55987 z m -42.60278,14.113 c -0.85457,0.18122 -1.6667,0.57594 -2.44952,1.07402 -2.33905,1.62929 -3.72655,4.05774 -3.63659,6.85865 -0.83027,-0.10613 -1.60706,-0.0997 -2.37415,0.0377 -1.84366,0.31919 -3.72173,2.01188 -4.3526,3.80618 -0.73061,1.98187 -0.56953,4.05278 0.77254,5.53968 0.43804,0.36028 0.82334,0.92115 1.50739,0.73485 0.37842,-0.10023 0.60052,-0.46547 0.69717,-0.82906 0.0344,-0.28653 -0.0866,-0.51189 -0.26379,-0.73486 -0.57203,-0.34142 -1.05593,-0.97238 -1.22476,-1.63929 -0.31993,-1.18745 0.0819,-2.68005 0.84791,-3.65544 1.04173,-1.32273 2.57756,-1.74138 4.1265,-1.39434 0.74495,0.005 1.45246,0.84985 2.18572,0.15074 0.20217,-0.19882 0.29952,-0.49171 0.28264,-0.77254 -0.37571,-0.89247 -0.5559,-1.84518 -0.28264,-2.95826 0.45626,-1.90325 2.08988,-3.6582 3.97576,-4.31493 0.56521,0.32012 1.04179,0.80082 1.46971,1.35666 1.11228,1.53851 1.47924,3.62452 0.4899,5.52084 -0.18776,0.36574 -0.56425,0.60881 -0.64064,1.03633 -0.0672,0.30423 0.0218,0.55736 0.20727,0.79139 0.17461,0.10895 0.34546,0.25288 0.6218,0.22611 1.1089,-0.26164 2.50544,-0.11742 3.44817,0.43337 1.35732,0.86761 1.93884,2.48994 1.6016,4.14534 -0.23376,1.31318 -1.26657,2.49486 -2.52488,2.93942 -0.42877,0.23011 -0.92464,0.16409 -1.35666,0.41454 -0.21055,0.18784 -0.33479,0.39604 -0.39569,0.65948 -0.0113,0.26783 0.0396,0.506 0.18842,0.71602 0.13223,0.18775 0.35861,0.24151 0.58412,0.28263 1.63148,-0.12122 3.39393,-1.10623 4.37145,-2.60026 1.09901,-1.62777 1.33462,-4.06725 0.58411,-5.7281 -0.84589,-2.02117 -2.66079,-3.10023 -4.78598,-3.2409 0.87917,-2.48559 0.48764,-4.99624 -1.03633,-6.93402 -0.75467,-0.8544 -1.55467,-1.62731 -2.63795,-1.92193 z m -3.52354,10.75904 c -0.17033,-0.003 -0.35366,0.0335 -0.50874,0.13189 -0.22889,0.1758 -0.36253,0.397 -0.43338,0.65949 0.14658,1.06837 0.19856,2.20306 0,3.35396 -0.59144,0.17397 -1.47981,0.0707 -1.63929,0.90443 -0.10667,0.36275 0.0616,0.69654 0.30148,0.90444 0.30799,0.22442 0.71251,0.11306 1.05517,0.11306 -0.0103,0.84719 -0.78469,1.74391 -0.18842,2.44951 0.1965,0.16255 0.46108,0.3115 0.7537,0.24496 0.23811,-0.0406 0.47763,-0.16233 0.6218,-0.37685 0.35146,-0.83707 0.48481,-1.8154 0.73485,-2.71332 0.27785,-0.0368 0.59012,-0.14857 0.86676,-0.11305 l -0.24495,1.62045 c -0.02,0.64985 -0.3783,1.46624 0.30147,1.82772 0.236,0.10414 0.44604,0.11646 0.69718,0.0565 0.29737,-0.0972 0.54401,-0.3888 0.65948,-0.67832 0.0838,-0.99571 0.2,-2.02057 0.41453,-3.0148 0.0694,-0.2523 0.3632,-0.14955 0.54644,-0.22611 0.61652,-0.14067 1.3486,0.12 1.94077,-0.18842 0.31939,-0.23999 0.50416,-0.62834 0.43337,-1.01749 -0.26608,-1.07907 -1.6177,-0.52219 -2.3553,-0.64065 0.20573,-0.61234 0.5202,-1.18373 0.77254,-1.77119 0.0542,-0.28463 -0.0338,-0.50538 -0.16958,-0.73485 -0.1505,-0.19983 -0.35768,-0.30691 -0.64065,-0.30148 -0.27314,0.006 -0.56497,0.11644 -0.75369,0.35801 -0.53356,0.8412 -0.84915,1.79731 -1.16824,2.75099 -0.37208,0.0595 -0.7517,0.17972 -1.09286,0.16959 0.0494,-1.16433 0.16515,-2.33755 -0.18842,-3.3728 -0.16425,-0.24116 -0.43214,-0.39027 -0.71602,-0.39569 z m -3.7308,0.11305 c -0.23226,0.0105 -0.46518,0.0548 -0.67833,0.11306 -0.74206,0.17072 -1.55283,0.8475 -1.8654,1.56392 -0.17794,0.51122 -0.45786,1.13923 -0.16958,1.62045 0.14091,0.26104 0.4,0.30337 0.64064,0.37685 1.12994,0.123 0.81149,-1.21074 1.48855,-1.67698 0.14188,-0.07 0.31264,-0.18782 0.45222,-0.11305 -0.66006,1.65723 -1.33724,3.31716 -1.9973,4.9744 -0.13367,0.27757 -0.0776,0.55173 0.0565,0.79139 0.24956,0.40537 0.72985,0.4567 1.14939,0.54643 0.68864,-0.0204 1.42298,0.11815 2.03498,-0.18843 0.20899,-0.17759 0.35484,-0.4062 0.41454,-0.65948 0.0359,-0.2967 -0.0569,-0.56577 -0.2638,-0.79139 -0.29888,-0.34766 -0.89847,-0.14149 -1.28128,-0.20726 0.61706,-1.64036 1.31426,-3.25267 1.95961,-4.8802 l 0.0754,-0.45222 -0.15074,-0.41453 c -0.45391,-0.43669 -1.16886,-0.63437 -1.8654,-0.60296 z m 10.17492,0.84791 c -0.21363,0.005 -0.43558,0.0444 -0.64064,0.1319 -0.30835,0.1686 -0.36817,0.434 -0.45222,0.71601 -0.0344,0.28656 0.0573,0.52307 0.22611,0.73486 0.25342,0.25052 0.66009,0.2382 1.03633,0.28263 0.48587,0.11634 0.94017,0.50353 0.99865,1.03634 0.0259,0.61262 -0.29828,1.12842 -0.82906,1.43202 -0.77619,0.71579 -2.05446,-0.14758 -2.63795,0.8856 -0.0743,0.93455 -0.92074,2.16672 -0.0942,2.88289 0.21948,0.14396 0.49425,0.14312 0.7537,0.0942 0.77148,-0.23015 0.61655,-1.11177 0.88559,-1.67698 1.00899,-0.13616 2.01072,-0.4894 2.80753,-1.33782 0.72608,-0.78243 1.11894,-2.08991 0.81022,-3.09016 -0.17142,-0.58446 -0.58309,-1.18189 -1.07402,-1.52624 -0.50744,-0.28646 -1.14926,-0.58095 -1.79003,-0.56527 z m -10.70251,7.83846 c -0.0468,0.005 -0.10311,0.0239 -0.15074,0.0377 -0.30884,0.10647 -0.57806,0.31873 -0.67833,0.64064 -0.24733,0.81536 -0.21528,1.6106 0.0942,2.27994 0.35491,0.76655 1.06347,1.11018 1.79004,1.30012 -0.10413,0.2802 -0.0672,0.57094 -0.11306,0.86676 0.004,1.40707 1.0903,2.74103 2.24225,3.3728 0.74731,0.31593 1.37342,-0.26321 2.03499,-0.56528 1.16871,-0.71135 1.94089,-1.79518 2.05383,-3.109 0.74664,-0.005 1.44779,-0.36927 2.01614,-0.97981 0.54809,-0.6744 1.00754,-1.74322 0.64064,-2.56257 -0.14935,-0.27212 -0.39476,-0.33902 -0.67833,-0.39569 -0.28146,-0.005 -0.54996,0.11114 -0.75369,0.32032 -0.21834,0.23871 -0.27812,0.62024 -0.24496,0.92328 -0.0668,0.36631 -0.33382,0.71531 -0.69717,0.84791 -0.4893,0.10052 -0.81731,-0.18804 -1.16823,-0.39569 -0.39693,-0.17035 -0.80932,-0.004 -1.1117,0.32032 -0.11595,0.22739 -0.24104,0.53667 -0.16959,0.79138 0.27507,0.5007 0.53447,1.0721 0.22611,1.69582 -0.27899,0.56427 -0.9537,1.08845 -1.54508,1.26245 -0.50757,-0.36657 -1.02744,-0.97485 -1.05517,-1.6393 -0.18415,-0.95794 1.13506,-1.28885 0.86675,-2.22341 -0.3947,-1.2252 -1.54569,-0.1016 -2.37415,-0.41453 -0.80748,-0.38345 -0.0726,-1.38886 -0.41453,-1.97846 -0.15436,-0.22341 -0.40555,-0.37826 -0.67833,-0.39569 -0.0455,-0.003 -0.0855,-0.005 -0.1319,0 z m -14.113,2.16688 c 3.03011,31.82305 53.80096,40.23146 48.91501,14.64059 -0.9121,-4.77677 -1.07267,-7.05726 3.39164,-6.95287 3.27461,0.0766 0.79403,3.51902 1.84656,5.76579 0.39608,0.84531 0.93205,0.70376 2.44952,0.24495 0.93669,-0.28317 0.4558,-4.38252 0.28263,-5.25704 -0.14175,-0.71602 3.73437,-2.01807 4.89904,-0.96096 1.22268,1.10989 -1.50127,6.97944 2.95827,6.14263 0.81363,-0.15253 0.88725,-0.73313 0.86675,-0.96096 -0.19849,-2.19298 -1.12877,-3.84394 0.20727,-5.3701 0.65819,-0.75168 5.63799,-2.50235 5.14399,5.21936 -0.24559,3.83986 -5.5045,25.3898 -6.80213,25.77647 -1.35575,0.40403 -2.34717,0.63152 -3.71196,0.96097 -0.22937,0.0554 -0.46684,0.11604 -0.69717,0.16958 -0.46959,0.10911 -0.94083,0.20026 -1.41319,0.30148 -0.0641,0.0136 -0.12433,0.0241 -0.18842,0.0377 -13.01763,2.75752 -26.95378,2.52922 -36.79931,-0.0942 -15.05846,-4.01267 -25.75269,-18.21942 -21.3485,-39.66336 z"
       id="path3015-6-8"
       inkscape:connector-curvature="0" />
    <text
       xml:space="preserve"
       style="font-size:39.49893569999999700px;font-style:normal;font-variant:normal;font-weight:bold;font-stretch:normal;text-align:start;writing-mode:lr-tb;text-anchor:start;fill:#ffffff;fill-opacity:1;stroke:none;font-family:Museo 700;-inkscape-font-specification:Museo 700 Bold"
       x="277.00067"
       y="615.73505"
       id="text3661-0-0"
       transform="matrix(0.9945219,-0.10452845,0.10452845,0.9945219,0,0)"><tspan
         sodipodi:role="line"
         id="tspan3663-6-1"
         x="277.00067"
         y="615.73505">Chorągiew</tspan></text>
    <text
       xml:space="preserve"
       style="font-size:39.49893569999999700px;font-style:normal;font-variant:normal;font-weight:bold;font-stretch:normal;text-align:start;writing-mode:lr-tb;text-anchor:start;fill:#ffffff;fill-opacity:1;stroke:none;font-family:Museo 700;-inkscape-font-specification:Museo 700 Bold"
       x="276.70648"
       y="652.82959"
       id="text3665-6-2"
       transform="matrix(0.9945219,-0.10452845,0.10452845,0.9945219,0,0)"><tspan
         sodipodi:role="line"
         id="tspan3667-1-5"
         x="276.70648"
         y="652.82959">Gdańska</tspan></text>
    <text
       xml:space="preserve"
       style="font-size:39.49893569999999700px;font-style:normal;font-variant:normal;font-weight:bold;font-stretch:normal;text-align:start;writing-mode:lr-tb;text-anchor:start;fill:#ffffff;fill-opacity:1;stroke:none;font-family:Museo 700;-inkscape-font-specification:Museo 700 Bold"
       x="276.73505"
       y="690.28265"
       id="text3669-8-0"
       transform="matrix(0.9945219,-0.10452845,0.10452845,0.9945219,0,0)"><tspan
         sodipodi:role="line"
         id="tspan3671-4-9"
         x="276.73505"
         y="690.28265">ZHP</tspan></text>
    <text
       id="text4901-4"
       y="711.98407"
       x="212.39505"
       style="font-size:11.94730282px;font-style:normal;font-variant:normal;font-weight:bold;font-stretch:normal;text-align:start;writing-mode:lr-tb;text-anchor:start;fill:#084ca1;fill-opacity:1;stroke:none;font-family:Museo 700;-inkscape-font-specification:Museo 700 Bold"
       xml:space="preserve"><tspan
         id="tspan4919-4"
         y="711.98407"
         x="212.39505"
         sodipodi:role="line" /></text>
  </g>
</svg>
